<?xml version="1.0" encoding="utf-8"?>
<!-- Generator: Adobe Illustrator 26.2.1, SVG Export Plug-In . SVG Version: 6.00 Build 0)  -->
<svg version="1.1" id="Layer_1" xmlns="http://www.w3.org/2000/svg" xmlns:xlink="http://www.w3.org/1999/xlink" x="0px" y="0px"
	 viewBox="0 0 10 20" enable-background="new 0 0 10 20" xml:space="preserve">
<g>
	<circle fill="#010101" cx="2" cy="17.9" r="1.56"/>
	<path fill="#010101" d="M2,16.79c0.61,0,1.11,0.5,1.11,1.11S2.61,19.01,2,19.01s-1.11-0.5-1.11-1.11S1.39,16.79,2,16.79 M2,15.9
		c-1.1,0-2,0.9-2,2s0.9,2,2,2s2-0.9,2-2S3.11,15.9,2,15.9L2,15.9z"/>
</g>
<path fill="#EF5652" d="M7.7,3C6.08,2.8,5.46,0.84,4.17,0.53C3.46,0.36,2.71,0.19,2.32,0.11c0,0,2.01,1.43,2.12,2.28
	S2.85,3.57,3.11,4.14C3.35,4.69,4.29,5,4.35,5.02l0,0c0,0,0,0,0.01,0c0.13,0.02,0.25,0.03,0.38,0.05c0.68,0.08,1.42,0.15,2.14,0.02
	c1.04-0.18,2.57-1.25,2.88-2.34C9.77,2.76,8.96,3.16,7.7,3z"/>
<path fill="#D42E2E" d="M3.11,4.14c-0.25-0.57,1.44-0.9,1.33-1.75S2.32,0.11,2.32,0.11l0,0l0,0v5.01c0.34-0.09,0.95-0.21,1.55-0.15
	c0.16,0.02,0.32,0.04,0.48,0.06C4.29,5,3.35,4.69,3.11,4.14z"/>
<path fill="#DDDDDD" d="M1.77,0v5.18v12.77c0.06,0.01,0.12,0.01,0.19,0.01c0.03,0,0.06,0,0.09,0c0.09,0,0.19,0,0.27-0.01V5.19V5.11
	V0.1V0H1.77z"/>
<path fill="#EF4538" d="M1.77,0v1.49v3.67c0.06,0,0.12,0,0.19,0c0.03,0,0.06,0,0.09,0c0.09,0,0.19,0,0.27,0V1.49V1.47V0.03V0
	C2.32,0,1.77,0,1.77,0z"/>
</svg>
