<?xml version="1.0" encoding="utf-8"?>
<!-- Generator: Adobe Illustrator 26.1.0, SVG Export Plug-In . SVG Version: 6.00 Build 0)  -->
<svg version="1.1" id="Layer_1" xmlns="http://www.w3.org/2000/svg" xmlns:xlink="http://www.w3.org/1999/xlink" x="0px" y="0px"
	 viewBox="0 0 460 84" enable-background="new 0 0 460 84" xml:space="preserve">
<g>
	<path fill="#34C759" d="M140.42,44.74c0,2.76-0.42,5.41-1.27,7.96c-0.85,2.55-2.08,4.79-3.7,6.72c-1.62,1.94-3.59,3.49-5.93,4.65
		c-2.33,1.17-4.99,1.75-7.96,1.75c-2.44,0-4.75-0.49-6.92-1.47c-2.18-0.98-3.87-2.32-5.09-4.02h-0.16v23.47H96.34V25.09h12.41v4.85
		h0.24c1.22-1.59,2.9-2.98,5.05-4.18c2.15-1.19,4.68-1.79,7.6-1.79c2.86,0,5.46,0.56,7.8,1.67c2.33,1.11,4.31,2.63,5.93,4.54
		c1.62,1.91,2.86,4.12,3.74,6.64C139.98,39.35,140.42,41.99,140.42,44.74z M127.77,44.74c0-1.27-0.2-2.52-0.6-3.74
		c-0.4-1.22-0.98-2.29-1.75-3.22c-0.77-0.93-1.74-1.68-2.9-2.27c-1.17-0.58-2.52-0.88-4.06-0.88c-1.49,0-2.81,0.29-3.98,0.88
		c-1.17,0.58-2.16,1.35-2.98,2.31c-0.82,0.95-1.46,2.04-1.91,3.26c-0.45,1.22-0.68,2.47-0.68,3.74c0,1.27,0.22,2.52,0.68,3.74
		c0.45,1.22,1.09,2.31,1.91,3.26c0.82,0.95,1.82,1.72,2.98,2.31c1.17,0.58,2.49,0.87,3.98,0.87c1.54,0,2.89-0.29,4.06-0.87
		c1.17-0.58,2.13-1.35,2.9-2.31c0.77-0.95,1.35-2.06,1.75-3.3C127.57,47.28,127.77,46.02,127.77,44.74z"/>
	<path fill="#34C759" d="M144.79,64.71V4.56h13.29v60.15H144.79z"/>
	<path fill="#34C759" d="M163.81,30.5c2.33-2.23,5.05-3.9,8.16-5.01c3.1-1.11,6.27-1.67,9.51-1.67c3.34,0,6.17,0.41,8.47,1.23
		c2.31,0.82,4.18,2.1,5.61,3.82c1.43,1.72,2.48,3.9,3.14,6.52c0.66,2.63,0.99,5.74,0.99,9.35v19.97h-11.93V60.5h-0.24
		c-1.01,1.64-2.53,2.92-4.57,3.82c-2.04,0.9-4.26,1.35-6.64,1.35c-1.59,0-3.24-0.21-4.93-0.64c-1.7-0.42-3.25-1.11-4.65-2.07
		c-1.41-0.95-2.56-2.23-3.46-3.82c-0.9-1.59-1.35-3.55-1.35-5.89c0-2.86,0.78-5.17,2.35-6.92c1.56-1.75,3.58-3.1,6.05-4.06
		c2.47-0.95,5.21-1.59,8.23-1.91c3.02-0.32,5.97-0.48,8.83-0.48v-0.64c0-1.96-0.69-3.41-2.07-4.34c-1.38-0.93-3.08-1.39-5.09-1.39
		c-1.86,0-3.65,0.4-5.37,1.19c-1.72,0.8-3.2,1.75-4.42,2.86L163.81,30.5z M187.76,47.45h-1.67c-1.43,0-2.88,0.07-4.34,0.2
		c-1.46,0.13-2.76,0.39-3.9,0.76c-1.14,0.37-2.08,0.92-2.82,1.63c-0.74,0.72-1.11,1.66-1.11,2.82c0,0.74,0.17,1.38,0.52,1.91
		c0.34,0.53,0.78,0.95,1.31,1.27c0.53,0.32,1.14,0.54,1.83,0.68c0.69,0.13,1.35,0.2,1.99,0.2c2.65,0,4.68-0.73,6.09-2.19
		c1.4-1.46,2.11-3.43,2.11-5.93V47.45z"/>
	<path fill="#34C759" d="M219.58,12.44c0,1.01-0.2,1.95-0.6,2.82c-0.4,0.88-0.93,1.63-1.59,2.27c-0.66,0.64-1.46,1.14-2.39,1.51
		c-0.93,0.37-1.9,0.56-2.9,0.56c-2.12,0-3.9-0.7-5.33-2.11c-1.43-1.4-2.15-3.09-2.15-5.05c0-0.95,0.19-1.87,0.56-2.75
		c0.37-0.88,0.9-1.63,1.59-2.27c0.69-0.64,1.48-1.15,2.39-1.55c0.9-0.4,1.88-0.6,2.94-0.6c1.01,0,1.98,0.19,2.9,0.56
		c0.93,0.37,1.72,0.88,2.39,1.51c0.66,0.64,1.19,1.39,1.59,2.27C219.38,10.49,219.58,11.43,219.58,12.44z M205.58,64.71V25.09h13.05
		v39.62H205.58z"/>
	<path fill="#34C759" d="M251.01,64.71V43.07c0-1.11-0.09-2.17-0.28-3.18c-0.19-1.01-0.49-1.9-0.91-2.67
		c-0.43-0.77-1.02-1.38-1.79-1.83c-0.77-0.45-1.74-0.68-2.9-0.68c-1.17,0-2.19,0.23-3.06,0.68c-0.88,0.45-1.61,1.07-2.19,1.87
		c-0.58,0.8-1.02,1.71-1.31,2.75c-0.29,1.03-0.44,2.11-0.44,3.22v21.48h-13.13V25.09h12.65v5.49h0.16c0.48-0.85,1.1-1.68,1.87-2.51
		c0.77-0.82,1.67-1.52,2.71-2.11c1.03-0.58,2.16-1.06,3.38-1.43c1.22-0.37,2.52-0.56,3.9-0.56c2.65,0,4.91,0.48,6.76,1.43
		c1.86,0.95,3.35,2.19,4.5,3.7c1.14,1.51,1.96,3.25,2.47,5.21c0.5,1.96,0.76,3.93,0.76,5.89v24.51H251.01z"/>
</g>
<path fill="#34C759" d="M51.68,31.97c0-16.64-10.74-30.22-24.22-30.94V1H1v61.94h26.46v-0.03C40.94,62.19,51.68,48.62,51.68,31.97z"
	/>
<polygon fill="#34C759" points="58.13,1 43.58,1 61.46,31.97 68.74,19.36 "/>
<polygon fill="#34C759" points="68.74,44.58 79.34,62.94 93.9,62.94 76.02,31.97 "/>
<polygon fill="none" stroke="#FFFFFF" stroke-width="1.9874" stroke-miterlimit="10" points="24.71,21.61 15.89,29.72 13.27,41.41 
	10.66,53.1 19.47,44.99 28.29,36.88 30.9,25.19 33.52,13.5 "/>
<g>
	<polygon fill="#FF2D55" points="33.52,13.5 24.71,21.61 15.89,29.72 22.09,33.3 	"/>
	<polygon fill="#CC254D" points="22.09,33.3 22.09,33.3 28.29,36.88 30.9,25.19 33.52,13.5 	"/>
	<polygon fill="#299941" points="22.09,33.3 10.66,53.1 19.47,44.99 28.29,36.88 22.09,33.3 	"/>
	<polygon fill="#34C759" points="15.89,29.72 13.27,41.41 10.66,53.1 22.09,33.3 	"/>
</g>
<polygon fill="#FF2D55" points="79.34,1 68.74,19.36 61.46,31.97 43.58,62.94 58.13,62.94 68.74,44.58 76.02,31.97 93.9,1 "/>
<g>
	<path fill="#299941" d="M327.1,37c0,4.35-0.75,8.32-2.25,11.92c-1.5,3.6-3.59,6.68-6.25,9.24c-2.67,2.56-5.84,4.54-9.51,5.94
		c-3.68,1.4-7.66,2.1-11.96,2.1s-8.27-0.7-11.92-2.1c-3.65-1.4-6.81-3.38-9.47-5.94c-2.67-2.56-4.75-5.64-6.25-9.24
		c-1.5-3.6-2.25-7.57-2.25-11.92c0-4.4,0.75-8.37,2.25-11.92c1.5-3.54,3.58-6.56,6.25-9.04c2.66-2.48,5.82-4.4,9.47-5.74
		c3.65-1.35,7.62-2.02,11.92-2.02s8.28,0.67,11.96,2.02c3.67,1.35,6.84,3.26,9.51,5.74c2.66,2.48,4.75,5.5,6.25,9.04
		C326.35,28.63,327.1,32.6,327.1,37z M312.89,37c0-2.38-0.39-4.61-1.16-6.68c-0.78-2.07-1.85-3.84-3.22-5.32s-3.03-2.64-4.97-3.49
		c-1.94-0.85-4.08-1.28-6.41-1.28s-4.45,0.43-6.37,1.28c-1.92,0.85-3.57,2.02-4.97,3.49s-2.47,3.25-3.22,5.32
		c-0.75,2.07-1.13,4.3-1.13,6.68c0,2.48,0.39,4.77,1.16,6.87c0.78,2.1,1.85,3.89,3.22,5.4c1.37,1.5,3.01,2.68,4.93,3.53
		c1.92,0.85,4.04,1.28,6.37,1.28s4.45-0.43,6.37-1.28c1.92-0.85,3.57-2.03,4.97-3.53c1.4-1.5,2.49-3.3,3.26-5.4
		C312.51,41.77,312.89,39.48,312.89,37z"/>
	<path fill="#299941" d="M374.3,45.23c0,2.69-0.41,5.28-1.24,7.76c-0.83,2.49-2.03,4.67-3.61,6.56c-1.58,1.89-3.51,3.4-5.78,4.54
		c-2.28,1.14-4.87,1.71-7.76,1.71c-2.38,0-4.63-0.48-6.75-1.44c-2.12-0.96-3.78-2.26-4.97-3.92h-0.16v22.9h-12.73V26.05h12.11v4.74
		h0.23c1.19-1.55,2.83-2.91,4.93-4.08c2.1-1.16,4.57-1.75,7.41-1.75c2.8,0,5.33,0.54,7.61,1.63c2.28,1.09,4.2,2.56,5.78,4.42
		c1.58,1.86,2.79,4.03,3.65,6.48C373.87,39.96,374.3,42.54,374.3,45.23z M361.96,45.23c0-1.24-0.19-2.46-0.58-3.65
		c-0.39-1.19-0.96-2.24-1.71-3.14c-0.75-0.91-1.7-1.64-2.83-2.21c-1.14-0.57-2.46-0.85-3.96-0.85c-1.45,0-2.74,0.28-3.88,0.85
		c-1.14,0.57-2.11,1.32-2.91,2.25c-0.8,0.93-1.42,1.99-1.86,3.18c-0.44,1.19-0.66,2.41-0.66,3.65s0.22,2.46,0.66,3.65
		c0.44,1.19,1.06,2.25,1.86,3.18c0.8,0.93,1.77,1.68,2.91,2.25c1.14,0.57,2.43,0.85,3.88,0.85c1.5,0,2.82-0.28,3.96-0.85
		c1.14-0.57,2.08-1.32,2.83-2.25c0.75-0.93,1.32-2,1.71-3.22C361.76,47.7,361.96,46.47,361.96,45.23z"/>
	<path fill="#299941" d="M416.77,45.85c0,0.52,0,1.04,0,1.55c0,0.52-0.03,1.01-0.08,1.47h-28.03c0.1,1.09,0.43,2.07,0.97,2.95
		c0.54,0.88,1.24,1.64,2.1,2.29c0.85,0.65,1.81,1.15,2.87,1.51c1.06,0.36,2.16,0.54,3.3,0.54c2.02,0,3.73-0.37,5.12-1.13
		c1.4-0.75,2.54-1.72,3.42-2.91l8.85,5.59c-1.81,2.64-4.21,4.67-7.18,6.09c-2.98,1.42-6.43,2.14-10.36,2.14
		c-2.9,0-5.64-0.45-8.23-1.36c-2.59-0.91-4.85-2.22-6.79-3.96c-1.94-1.73-3.47-3.87-4.58-6.41c-1.11-2.54-1.67-5.43-1.67-8.69
		c0-3.16,0.54-6.02,1.63-8.58c1.09-2.56,2.56-4.74,4.43-6.52c1.86-1.79,4.06-3.17,6.6-4.15c2.54-0.98,5.28-1.47,8.23-1.47
		c2.85,0,5.46,0.48,7.84,1.44c2.38,0.96,4.43,2.34,6.13,4.15c1.71,1.81,3.04,4.01,4,6.6C416.29,39.59,416.77,42.54,416.77,45.85z
		 M405.04,40.96c0-2.02-0.63-3.75-1.9-5.2c-1.27-1.45-3.17-2.17-5.71-2.17c-1.24,0-2.38,0.19-3.42,0.58
		c-1.04,0.39-1.94,0.92-2.72,1.59c-0.78,0.67-1.4,1.46-1.86,2.37c-0.47,0.91-0.73,1.85-0.78,2.83H405.04z"/>
	<path fill="#299941" d="M446.19,64.71V43.6c0-1.09-0.09-2.12-0.27-3.11c-0.18-0.98-0.48-1.85-0.89-2.6c-0.42-0.75-1-1.34-1.75-1.79
		c-0.75-0.44-1.7-0.66-2.83-0.66c-1.14,0-2.14,0.22-2.99,0.66c-0.85,0.44-1.57,1.05-2.14,1.82c-0.57,0.78-1,1.67-1.28,2.68
		c-0.28,1.01-0.43,2.06-0.43,3.14v20.96H420.8V26.05h12.34v5.36h0.16c0.47-0.83,1.07-1.64,1.82-2.45c0.75-0.8,1.63-1.49,2.64-2.06
		c1.01-0.57,2.11-1.03,3.3-1.4c1.19-0.36,2.46-0.54,3.8-0.54c2.59,0,4.79,0.47,6.6,1.4c1.81,0.93,3.27,2.14,4.39,3.61
		c1.11,1.48,1.91,3.17,2.41,5.09c0.49,1.92,0.74,3.83,0.74,5.74v23.91H446.19z"/>
</g>
</svg>
