<?xml version="1.0" encoding="utf-8"?>
<!-- Generator: Adobe Illustrator 26.2.1, SVG Export Plug-In . SVG Version: 6.00 Build 0)  -->
<svg version="1.1" id="Layer_1" xmlns="http://www.w3.org/2000/svg" xmlns:xlink="http://www.w3.org/1999/xlink" x="0px" y="0px"
	 viewBox="0 0 250 60" enable-background="new 0 0 250 60" xml:space="preserve">
<g>
	<path fill="#317E3D" d="M209.8,59.5c-7.6,0-15.6-1-23.7-3c-2.2-0.5-4.2-1.1-6.1-1.7c-18.7-7.3-35.7-10.6-53.4-10.6
		c-11.6,0-22.3,1.4-32.7,2.8c-10.3,1.4-21,2.8-32.5,2.8c-11.1,0-21.9-1.4-32.9-4.2C11,42.1,1.6,35.1,0.6,24.9c-0.5-4.5,1-9,3.9-12.1
		c2.3-2.4,5.4-4.1,9.9-5.4c4.8-1.3,10-2,15.4-2c4.2,0,8.5,0.4,12.7,1.2c5.6,1.1,11.2,2.7,16.6,4.2c5.6,1.6,11.5,3.3,17.3,4.3
		c6.6,1.2,12.5,2.2,18.9,2.2h0.4c6.2,0,12.9-0.7,20.6-1.9c10.1-1.6,20.2-4.1,30-6.5c4.1-1,8.3-2,12.4-2.9
		c12.7-2.9,25.1-5.5,37.5-5.5c6.9,0,13.1,0.8,18.9,2.4c10.9,3.1,20.5,9,28,17.2c2.1,2.4,4.7,5.6,5.6,9.5c1.8,7.6-1.9,15.5-6.4,19.9
		c-4.3,4.2-10.3,7.1-17.6,8.6C220.2,59,215.1,59.5,209.8,59.5z"/>
	<path fill="#6D4D42" d="M196.5,1c6.9,0,13,0.8,18.8,2.4c10.8,3,20.4,8.9,27.8,17c2.1,2.3,4.6,5.4,5.5,9.2
		c1.8,7.4-1.9,15.1-6.3,19.4c-4.2,4.1-10.2,7-17.3,8.5c-4.8,1-9.9,1.5-15.1,1.5c-7.6,0-15.5-1-23.6-2.9c-2.2-0.5-4.1-1.1-6-1.7
		c-18.8-7.3-35.8-10.7-53.6-10.7c-11.6,0-22.4,1.4-32.8,2.8c-10.3,1.4-21,2.8-32.4,2.8c-11.1,0-21.8-1.3-32.8-4.2
		C11.4,41.7,2.1,34.8,1.1,24.9C0.6,20.5,2,16.2,4.8,13.2c2.2-2.4,5.3-4,9.7-5.3c4.7-1.3,9.9-2,15.3-2c4.2,0,8.4,0.4,12.6,1.2
		c5.6,1,11.2,2.6,16.6,4.2c5.7,1.6,11.5,3.3,17.4,4.3c6.6,1.2,12.6,2.2,19,2.2h0.4c6.2,0,13-0.7,20.7-1.9
		c10.1-1.7,20.3-4.1,30.1-6.5c4.1-1,8.3-2,12.4-2.9C171.8,3.6,184.1,1,196.5,1 M196.5,0c-12.7,0-25.5,2.7-37.6,5.5
		c-14.1,3.2-28.1,7.1-42.4,9.4c-6.8,1.1-13.7,1.9-20.5,1.9c-0.2,0-0.3,0-0.4,0c-6.4,0-12.5-1-18.8-2.2c-11.5-2.1-22.5-6.4-34-8.5
		c-4.2-0.8-8.5-1.2-12.8-1.2c-5.3,0-10.5,0.6-15.5,2c-3.7,1-7.5,2.6-10.2,5.6c-3,3.2-4.5,8-4,12.5c1.4,13.8,17.5,19,28.3,21.2
		c12.2,3.1,23,4.2,33.1,4.2c23,0,42.1-5.7,65.1-5.7c15.2,0,32.2,2.5,53.2,10.6c2,0.7,4.1,1.2,6.1,1.7c7.7,1.8,15.8,3,23.9,3
		c5.2,0,10.3-0.5,15.3-1.5c6.4-1.3,12.9-4,17.8-8.7c5.1-4.9,8.3-13,6.6-20.3c-0.9-3.8-3.2-6.9-5.8-9.7c-7.7-8.4-17.6-14.3-28.2-17.3
		C209.3,0.7,202.9,0,196.5,0L196.5,0z"/>
</g>
<path fill="#70B2E2" d="M112.3,25c6.2,5.5,11.5-5.9,18.1-5.3c3.5,0.3,6.5,1.1,9.8-0.8c1.4-0.8,2.6-1.9,3.2-3.4
	c0.6-1.3,1.1-3.7,0-4.9c-0.4-0.5-1.1-0.7-1.7-0.9C135.5,8,129,7.8,122.8,9.3c-4.8,1.1-10.3,3.8-11.3,9C111.2,19.9,111,23.9,112.3,25
	z"/>
<path fill="#3D82C4" d="M115.8,21.9c4.4,3.9,8.1-4.1,12.7-3.7c2.5,0.2,4.6,0.8,6.9-0.5c1-0.5,1.8-1.3,2.2-2.4c0.4-0.9,0.8-2.6,0-3.4
	c-0.3-0.4-0.8-0.5-1.2-0.6c-4.3-1.2-8.9-1.3-13.2-0.3c-3.3,0.8-7.2,2.6-8,6.4C115.1,18.2,114.9,21.1,115.8,21.9z"/>
<path fill="#14499E" d="M119.1,18.8c2.6,2.3,4.8-2.4,7.5-2.2c1.5,0.1,2.7,0.5,4.1-0.3c0.6-0.3,1.1-0.8,1.3-1.4c0.2-0.6,0.4-1.5,0-2
	c-0.2-0.2-0.4-0.3-0.7-0.4c-2.6-0.7-5.2-0.8-7.8-0.2c-2,0.5-4.3,1.6-4.7,3.8C118.6,16.6,118.5,18.3,119.1,18.8z"/>
<path fill="#FDD837" d="M164.7,12.9c3.9-3.9,10.8-5,16.3-4.4c2.3,0.2,4.5,0.1,6.3,1.3c1.5,1,2.2,2.6,1.8,4.1c-0.5,1.6-2.2,3-4.2,3.8
	c-2,0.8-4.3,1-6.4,0.8c-1.3-0.1-2.7-0.4-4.1-0.2c-3.5,0.5-6.8,3-9.9,0.8C162.3,17.7,162.8,14.8,164.7,12.9z"/>
<path fill="#FEED58" d="M166.1,13.1c3.5-3,9.5-3.9,14.3-3.6c2,0.1,3.9,0,5.4,0.8c1.2,0.7,1.9,1.8,1.4,3c-0.4,1.2-2,2.3-3.7,2.9
	c-1.8,0.6-3.8,0.8-5.6,0.8c-1.2,0-2.3-0.2-3.5,0c-3,0.4-6,2.4-8.6,0.9C163.9,16.7,164.4,14.6,166.1,13.1z"/>
<path fill="#FFF278" d="M170,14c2.1-1.5,5.7-2.1,8.6-2.1c1.2,0,2.3-0.1,3.2,0.3c0.7,0.3,1.1,0.8,0.8,1.4c-0.3,0.6-1.2,1.1-2.3,1.5
	s-2.2,0.5-3.3,0.5c-0.7,0-1.4,0-2.1,0.1c-1.8,0.3-3.6,1.3-5.1,0.6C168.6,15.8,168.9,14.8,170,14z"/>
<g>
	<path fill="#FDD837" d="M191.6,51.7c-4.3,4.1-10.5,3.2-15-0.5c-1.9-1.3-3.7-2.3-4.8-3.9c-0.9-1.3-1.1-2.7-0.3-4.1
		c0.8-1.4,2.6-3,4.5-3.5c1.9-0.6,3.9-0.2,5.6,0.8c1.1,0.6,2.2,1.5,3.4,1.9c3.1,0.8,6.6,0.2,8.5,3.3
		C194.8,47.7,193.7,49.7,191.6,51.7z"/>
</g>
<g>
	<path fill="#FEED58" d="M189.6,50.9c-3.6,3.5-8.9,2.7-12.7-0.4c-1.6-1.1-3.1-1.9-4.1-3.3c-0.8-1.1-0.9-2.3-0.3-3.5
		c0.7-1.2,2.2-2.5,3.8-3c1.6-0.5,3.3-0.2,4.8,0.7c0.9,0.5,1.8,1.3,2.9,1.6c2.6,0.7,5.6,0.2,7.1,2.8
		C192.3,47.5,191.4,49.2,189.6,50.9z"/>
</g>
<g>
	<path fill="#FFF278" d="M187.9,49.8c-2.5,2.5-6.3,1.9-9-0.3c-1.1-0.8-2.2-1.4-2.9-2.3c-0.6-0.8-0.7-1.6-0.2-2.4
		c0.5-0.9,1.5-1.8,2.7-2.1c1.1-0.3,2.3-0.1,3.4,0.5c0.7,0.4,1.3,0.9,2,1.1c1.9,0.5,3.9,0.1,5.1,2C189.8,47.4,189.1,48.6,187.9,49.8z
		"/>
</g>
<g>
	<circle fill="#1E5F30" cx="66.3" cy="14.9" r="5.6"/>
	<circle fill="#1E5F30" cx="74.1" cy="12.2" r="5.8"/>
	<circle fill="#1E5F30" cx="72.3" cy="15.9" r="5.9"/>
	<circle fill="#1E5F30" cx="69.5" cy="13.1" r="5.9"/>
</g>
<g>
	<circle fill="#1E5F30" cx="22.8" cy="6.9" r="2.6"/>
	<circle fill="#1E5F30" cx="25.7" cy="4.4" r="2.7"/>
	<circle fill="#1E5F30" cx="25.5" cy="6.3" r="2.8"/>
	<circle fill="#1E5F30" cx="28" cy="4.9" r="2.8"/>
	<circle fill="#1E5F30" cx="23.9" cy="5.5" r="2.8"/>
</g>
<g>
	<circle fill="#1E5F30" cx="20" cy="44" r="2.8"/>
	<circle fill="#1E5F30" cx="16" cy="43.3" r="2.9"/>
	<circle fill="#1E5F30" cx="17.7" cy="42.1" r="2.9"/>
	<circle fill="#1E5F30" cx="14.9" cy="41.1" r="2.9"/>
	<circle fill="#1E5F30" cx="18.2" cy="44" r="2.9"/>
</g>
<circle fill="#1E5F30" cx="41.6" cy="5.8" r="3.7"/>
<circle fill="#1E5F30" cx="42.5" cy="8.3" r="3.8"/>
<circle fill="#1E5F30" cx="38.7" cy="7.8" r="3"/>
<circle fill="#1E5F30" cx="37.2" cy="47.1" r="4.6"/>
<circle fill="#1E5F30" cx="39.3" cy="49.5" r="4.7"/>
<circle fill="#1E5F30" cx="34.8" cy="50.8" r="3.7"/>
<circle fill="#1E5F30" cx="52" cy="9.1" r="3"/>
<circle fill="#1E5F30" cx="56.4" cy="9.6" r="3.1"/>
<circle fill="#1E5F30" cx="54.7" cy="11" r="3.2"/>
<circle fill="#1E5F30" cx="54" cy="9" r="3.2"/>
<circle fill="#1E5F30" cx="55.4" cy="51" r="3"/>
<circle fill="#1E5F30" cx="58.9" cy="48.3" r="3.1"/>
<circle fill="#1E5F30" cx="58.6" cy="50.5" r="3.2"/>
<circle fill="#1E5F30" cx="56.8" cy="49.5" r="3.2"/>
<circle fill="#1E5F30" cx="78.2" cy="49" r="4.1"/>
<circle fill="#1E5F30" cx="83.8" cy="46.8" r="4.3"/>
<circle fill="#1E5F30" cx="82.6" cy="49.6" r="4.4"/>
<circle fill="#1E5F30" cx="80.5" cy="47.6" r="4.4"/>
<g>
	<circle fill="#1E5F30" cx="163.2" cy="51.5" r="4.1"/>
	<circle fill="#1E5F30" cx="157.6" cy="49.1" r="4.3"/>
	<circle fill="#1E5F30" cx="160.5" cy="48" r="4.4"/>
	<circle fill="#1E5F30" cx="160.6" cy="50.9" r="4.4"/>
</g>
<g>
	<circle fill="#1E5F30" cx="227" cy="7.2" r="3.6"/>
	<circle fill="#1E5F30" cx="231.8" cy="9.3" r="3.7"/>
	<circle fill="#1E5F30" cx="229.3" cy="10.2" r="3.8"/>
	<circle fill="#1E5F30" cx="229.2" cy="7.7" r="3.8"/>
</g>
<rect x="8" y="17" fill="#81C785" width="4.4" height="11.8"/>
</svg>
