<?xml version="1.0" encoding="utf-8"?>
<!-- Generator: Adobe Illustrator 26.2.1, SVG Export Plug-In . SVG Version: 6.00 Build 0)  -->
<svg version="1.1" id="Layer_1" xmlns="http://www.w3.org/2000/svg" xmlns:xlink="http://www.w3.org/1999/xlink" x="0px" y="0px"
	 viewBox="0 0 250 60" enable-background="new 0 0 250 60" xml:space="preserve">
<g>
	<path fill="#317E3D" d="M209.81,59.5c-7.59,0-15.58-0.99-23.73-2.95c-2.2-0.53-4.19-1.09-6.09-1.71
		c-18.71-7.26-35.68-10.65-53.39-10.65c-11.58,0-22.31,1.44-32.69,2.84c-10.32,1.39-20.99,2.82-32.45,2.82
		c-11.12,0-21.89-1.36-32.93-4.15C11.03,42.11,1.63,35.12,0.58,24.91c-0.46-4.47,0.99-8.98,3.87-12.09c2.26-2.43,5.42-4.14,9.95-5.4
		c4.78-1.32,9.96-2,15.4-2c4.2,0,8.47,0.4,12.71,1.19c5.61,1.05,11.22,2.65,16.65,4.2c5.64,1.61,11.48,3.27,17.34,4.33
		c6.57,1.18,12.54,2.16,18.94,2.16l0.45,0c6.19-0.05,12.94-0.68,20.63-1.94c10.12-1.65,20.25-4.1,30.05-6.46
		c4.06-0.98,8.27-1.99,12.41-2.94c12.68-2.89,25.1-5.48,37.52-5.48c6.9,0,13.08,0.8,18.91,2.44c10.86,3.07,20.53,9,27.99,17.17
		c2.15,2.35,4.73,5.56,5.65,9.46c1.8,7.62-1.94,15.46-6.45,19.86c-4.26,4.15-10.33,7.12-17.55,8.59
		C220.25,59.01,215.13,59.5,209.81,59.5z"/>
	<path fill="#6D4D42" d="M196.5,1c6.85,0,12.99,0.79,18.77,2.43c10.77,3.04,20.36,8.93,27.75,17.03c2.11,2.31,4.64,5.45,5.54,9.24
		c1.76,7.43-1.91,15.09-6.32,19.39c-4.19,4.09-10.17,7.01-17.3,8.46c-4.76,0.97-9.85,1.46-15.14,1.46c-7.55,0-15.5-0.99-23.61-2.93
		c-2.18-0.52-4.15-1.08-6.02-1.69c-18.78-7.28-35.81-10.68-53.57-10.68c-11.62,0-22.36,1.44-32.75,2.84
		c-10.3,1.38-20.95,2.82-32.38,2.82c-11.07,0-21.81-1.35-32.85-4.15C11.37,41.67,2.11,34.83,1.08,24.86
		c-0.45-4.32,0.95-8.7,3.74-11.69c2.19-2.36,5.28-4.03,9.72-5.26c4.74-1.31,9.87-1.98,15.27-1.98c4.17,0,8.41,0.4,12.62,1.19
		c5.58,1.04,11.18,2.64,16.6,4.19c5.66,1.61,11.5,3.28,17.39,4.34c6.6,1.19,12.58,2.17,19.03,2.17l0.45,0
		c6.22-0.05,12.99-0.68,20.7-1.94c10.13-1.66,20.27-4.1,30.08-6.47c4.07-0.98,8.27-1.99,12.41-2.94C171.75,3.59,184.13,1,196.5,1
		 M196.5,0c-12.66,0-25.49,2.73-37.63,5.49c-14.12,3.22-28.14,7.06-42.43,9.39c-6.8,1.11-13.67,1.88-20.55,1.93
		c-0.15,0-0.3,0-0.45,0c-6.44,0-12.52-1.02-18.85-2.16c-11.48-2.07-22.53-6.39-33.99-8.53c-4.16-0.78-8.48-1.2-12.8-1.2
		c-5.27,0-10.54,0.63-15.54,2.01C10.53,7.98,6.8,9.57,4.09,12.49c-3.01,3.23-4.47,7.96-4,12.48C1.5,38.73,17.62,43.97,28.42,46.19
		c12.22,3.09,23.01,4.17,33.05,4.17c23.01,0,42.05-5.66,65.13-5.66c15.22,0,32.2,2.46,53.24,10.62c2.02,0.66,4.07,1.23,6.13,1.72
		c7.7,1.85,15.8,2.96,23.85,2.96c5.17,0,10.32-0.46,15.34-1.48c6.43-1.31,12.92-3.97,17.8-8.73c5.05-4.93,8.32-13.05,6.59-20.33
		c-0.89-3.75-3.24-6.9-5.77-9.68c-7.66-8.4-17.59-14.32-28.22-17.32C209.32,0.7,202.93,0,196.5,0L196.5,0z"/>
</g>
<path fill="#42A047" d="M230.47,50.92c-15.09,7.26-35.67,3.28-50.83-4.16c-6.31-3.09-12.58-5-16.44-10.29
	c-3.17-4.34-3.67-9.68-0.76-13.7c2.99-4.14,9.26-6.5,15.76-6.71s13.17,1.55,18.99,4.22c3.7,1.7,7.23,3.81,11.33,4.68
	c10.38,2.2,22.4-1.6,28.89,7.74C242.12,39.5,238,47.29,230.47,50.92z"/>
<path fill="#70B2E2" d="M112.29,25.05c6.21,5.48,11.5-5.86,18.06-5.33c3.54,0.29,6.47,1.11,9.84-0.78c1.38-0.77,2.57-1.9,3.18-3.38
	c0.55-1.33,1.07-3.67,0.02-4.92c-0.42-0.5-1.09-0.72-1.72-0.89c-6.14-1.71-12.66-1.91-18.86-0.42c-4.77,1.15-10.29,3.75-11.35,9.05
	C111.16,19.9,111.01,23.92,112.29,25.05z"/>
<path fill="#3D82C4" d="M115.84,21.87c4.37,3.85,8.08-4.12,12.69-3.74c2.49,0.2,4.55,0.78,6.92-0.55c0.97-0.54,1.81-1.33,2.23-2.37
	c0.39-0.94,0.75-2.58,0.01-3.45c-0.3-0.35-0.76-0.5-1.21-0.63c-4.31-1.2-8.89-1.34-13.25-0.29c-3.35,0.81-7.23,2.63-7.98,6.36
	C115.05,18.25,114.94,21.07,115.84,21.87z"/>
<path fill="#14499E" d="M119.05,18.79c2.58,2.27,4.77-2.43,7.5-2.21c1.47,0.12,2.69,0.46,4.09-0.32c0.57-0.32,1.07-0.79,1.32-1.4
	c0.23-0.55,0.44-1.53,0.01-2.04c-0.18-0.21-0.45-0.3-0.71-0.37c-2.55-0.71-5.25-0.79-7.83-0.17c-1.98,0.48-4.27,1.55-4.71,3.76
	C118.58,16.65,118.51,18.32,119.05,18.79z"/>
<path fill="#81C785" d="M232.81,44.93c-5.28,4.94-13.3,4.54-19.47,1.93c-2.57-1.08-5.05-1.56-6.82-3.97
	c-1.45-1.98-1.96-4.68-1.1-6.98c0.89-2.37,3.12-4.08,5.56-4.71c2.45-0.63,5.07-0.26,7.43,0.65c1.5,0.58,2.96,1.38,4.56,1.5
	c4.06,0.3,8.38-2.62,11.38,1.67C236.54,38.14,235.44,42.47,232.81,44.93z"/>
<path fill="#FDD837" d="M164.7,16.59c3.91-3.91,10.78-4.97,16.34-4.37c2.31,0.25,4.48,0.14,6.28,1.34c1.47,0.98,2.22,2.57,1.76,4.13
	c-0.48,1.61-2.17,3.03-4.18,3.82c-2.01,0.79-4.29,0.99-6.4,0.81c-1.34-0.11-2.68-0.37-4.06-0.18c-3.49,0.48-6.82,2.98-9.88,0.83
	C162.32,21.4,162.75,18.55,164.7,16.59z"/>
<path fill="#FEED58" d="M166.11,16.82c3.5-2.99,9.49-3.95,14.31-3.65c2,0.13,3.89-0.01,5.42,0.83c1.25,0.69,1.86,1.84,1.42,3.01
	c-0.45,1.2-1.96,2.3-3.73,2.93c-1.77,0.63-3.75,0.84-5.58,0.76c-1.17-0.05-2.32-0.2-3.52-0.03c-3.04,0.44-6,2.38-8.61,0.86
	C163.93,20.44,164.37,18.32,166.11,16.82z"/>
<path fill="#FFF278" d="M170.01,17.74c2.15-1.52,5.74-2.12,8.6-2.08c1.19,0.02,2.32-0.09,3.21,0.28c0.73,0.31,1.07,0.85,0.78,1.42
	c-0.3,0.59-1.22,1.15-2.28,1.5c-1.06,0.35-2.25,0.49-3.34,0.49c-0.69,0-1.38-0.05-2.09,0.06c-1.82,0.28-3.63,1.28-5.14,0.61
	C168.63,19.54,168.94,18.5,170.01,17.74z"/>
<g>
	<path fill="#FDD837" d="M196.25,52.98c-4.26,4.14-10.54,3.18-15.04-0.52c-1.88-1.35-3.69-2.28-4.82-3.92
		c-0.92-1.35-1.1-2.66-0.31-4.09c0.81-1.44,2.57-2.95,4.48-3.52c1.9-0.59,3.9-0.18,5.65,0.84c1.12,0.64,2.18,1.51,3.41,1.88
		c3.11,0.78,6.59,0.2,8.47,3.29C199.46,48.95,198.38,51.02,196.25,52.98z"/>
</g>
<g>
	<path fill="#FEED58" d="M194.27,52.18c-3.6,3.52-8.91,2.71-12.71-0.43c-1.58-1.14-3.12-1.93-4.07-3.32
		c-0.78-1.14-0.93-2.27-0.26-3.48c0.68-1.22,2.18-2.5,3.78-2.99c1.6-0.5,3.29-0.16,4.77,0.71c0.94,0.54,1.84,1.28,2.88,1.59
		c2.63,0.66,5.57,0.16,7.15,2.79C196.98,48.76,196.07,50.52,194.27,52.18z"/>
</g>
<g>
	<path fill="#FFF278" d="M192.55,51.06c-2.54,2.47-6.29,1.9-8.98-0.31c-1.12-0.81-2.2-1.36-2.88-2.34c-0.55-0.8-0.66-1.59-0.19-2.44
		c0.48-0.86,1.54-1.76,2.67-2.1c1.13-0.35,2.33-0.11,3.37,0.5c0.67,0.38,1.3,0.9,2.04,1.12c1.86,0.46,3.93,0.12,5.06,1.96
		C194.46,48.65,193.82,49.89,192.55,51.06z"/>
</g>
<g>
	<circle cx="226.78" cy="39.81" r="1.56"/>
	<path d="M226.78,38.7c0.61,0,1.11,0.5,1.11,1.11s-0.5,1.11-1.11,1.11s-1.11-0.5-1.11-1.11S226.17,38.7,226.78,38.7 M226.78,37.81
		c-1.1,0-2,0.9-2,2s0.9,2,2,2s2-0.9,2-2S227.89,37.81,226.78,37.81L226.78,37.81z"/>
</g>
<path fill="#EF5451" d="M232.71,24.91c-1.62-0.2-2.24-2.16-3.53-2.47c-0.71-0.17-1.46-0.34-1.85-0.42c0,0,2.01,1.43,2.12,2.28
	c0.11,0.85-1.59,1.18-1.33,1.75c0.24,0.55,1.18,0.86,1.24,0.88c0,0,0,0,0,0c0,0,0,0,0.01,0c0.13,0.02,0.25,0.03,0.38,0.05
	c0.68,0.08,1.42,0.15,2.14,0.02c1.04-0.18,2.57-1.25,2.88-2.34C234.78,24.67,233.97,25.07,232.71,24.91z"/>
<path fill="#D32E2E" d="M228.12,26.05c-0.25-0.57,1.44-0.9,1.33-1.75c-0.11-0.85-2.12-2.28-2.12-2.28l0,0c0,0,0,0,0,0v5.01
	c0.34-0.09,0.95-0.21,1.55-0.15c0.16,0.02,0.32,0.04,0.48,0.06C229.3,26.91,228.36,26.6,228.12,26.05z"/>
<path fill="#DDDDDD" d="M226.78,21.91v5.18v12.77c0.06,0.01,0.12,0.01,0.19,0.01c0.03,0,0.06,0,0.09,0c0.09,0,0.19,0,0.27-0.01V27.1
	v-0.08v-5.01v-0.1H226.78z"/>
<path fill="#EF4438" d="M226.78,21.91v1.49v3.67c0.06,0,0.12,0,0.19,0c0.03,0,0.06,0,0.09,0c0.09,0,0.19,0,0.27,0V23.4v-0.02v-1.44
	v-0.03H226.78z"/>
<g>
	<circle fill="#1E5F30" cx="66.34" cy="14.89" r="5.57"/>
	<circle fill="#1E5F30" cx="74.05" cy="12.16" r="5.79"/>
	<circle fill="#1E5F30" cx="72.26" cy="15.91" r="5.9"/>
	<circle fill="#1E5F30" cx="69.54" cy="13.09" r="5.9"/>
</g>
<g>
	<circle fill="#1E5F30" cx="22.77" cy="6.88" r="2.63"/>
	<circle fill="#1E5F30" cx="25.71" cy="4.37" r="2.73"/>
	<circle fill="#1E5F30" cx="25.55" cy="6.33" r="2.79"/>
	<circle fill="#1E5F30" cx="27.98" cy="4.88" r="2.79"/>
	<circle fill="#1E5F30" cx="23.88" cy="5.54" r="2.79"/>
</g>
<g>
	<circle fill="#1E5F30" cx="20" cy="43.97" r="2.77"/>
	<circle fill="#1E5F30" cx="16" cy="43.26" r="2.88"/>
	<circle fill="#1E5F30" cx="17.69" cy="42.07" r="2.93"/>
	<circle fill="#1E5F30" cx="14.89" cy="41.07" r="2.93"/>
	<circle fill="#1E5F30" cx="18.18" cy="43.96" r="2.93"/>
</g>
<circle fill="#1E5F30" cx="41.6" cy="5.79" r="3.7"/>
<circle fill="#1E5F30" cx="42.49" cy="8.29" r="3.77"/>
<circle fill="#1E5F30" cx="38.72" cy="7.82" r="2.99"/>
<circle fill="#1E5F30" cx="37.16" cy="47.08" r="4.57"/>
<circle fill="#1E5F30" cx="39.35" cy="49.52" r="4.66"/>
<circle fill="#1E5F30" cx="34.83" cy="50.77" r="3.7"/>
<circle fill="#1E5F30" cx="52.03" cy="9.09" r="3.02"/>
<circle fill="#1E5F30" cx="56.44" cy="9.64" r="3.14"/>
<circle fill="#1E5F30" cx="54.66" cy="11.02" r="3.2"/>
<circle fill="#1E5F30" cx="54.03" cy="8.99" r="3.2"/>
<circle fill="#1E5F30" cx="55.41" cy="50.98" r="3.02"/>
<circle fill="#1E5F30" cx="58.92" cy="48.26" r="3.14"/>
<circle fill="#1E5F30" cx="58.64" cy="50.5" r="3.2"/>
<circle fill="#1E5F30" cx="56.75" cy="49.51" r="3.2"/>
<circle fill="#1E5F30" cx="78.18" cy="49.02" r="4.12"/>
<circle fill="#1E5F30" cx="83.83" cy="46.81" r="4.29"/>
<circle fill="#1E5F30" cx="82.59" cy="49.63" r="4.37"/>
<circle fill="#1E5F30" cx="80.51" cy="47.61" r="4.37"/>
<g>
	<circle fill="#1E5F30" cx="163.2" cy="51.53" r="4.12"/>
	<circle fill="#1E5F30" cx="157.64" cy="49.1" r="4.29"/>
	<circle fill="#1E5F30" cx="160.5" cy="47.98" r="4.37"/>
	<circle fill="#1E5F30" cx="160.55" cy="50.88" r="4.37"/>
</g>
<g>
	<circle fill="#1E5F30" cx="226.96" cy="7.15" r="3.57"/>
	<circle fill="#1E5F30" cx="231.76" cy="9.28" r="3.71"/>
	<circle fill="#1E5F30" cx="229.27" cy="10.24" r="3.78"/>
	<circle fill="#1E5F30" cx="229.24" cy="7.73" r="3.78"/>
</g>
<rect x="8.01" y="17.01" fill="#81C785" width="4.37" height="11.82"/>
</svg>
