<?xml version="1.0" encoding="utf-8"?>
<!-- Generator: Adobe Illustrator 26.2.1, SVG Export Plug-In . SVG Version: 6.00 Build 0)  -->
<svg version="1.1" id="Layer_1" xmlns="http://www.w3.org/2000/svg" xmlns:xlink="http://www.w3.org/1999/xlink" x="0px" y="0px"
	 viewBox="0 0 80 40" enable-background="new 0 0 80 40" xml:space="preserve">
<path fill="#42A047" d="M70.5,35.4c-15.1,7.3-35.7,3.3-50.8-4.2c-6.3-3.1-12.6-5-16.4-10.3C0,16.6-0.5,11.2,2.4,7.2
	c3-4.1,9.3-6.5,15.8-6.7s13.2,1.5,19,4.2c3.7,1.7,7.2,3.8,11.3,4.7c10.4,2.2,22.4-1.6,28.9,7.7C82.1,24,78,31.7,70.5,35.4z"/>
<path fill="#82C886" d="M72.8,29.4c-5.3,4.9-13.3,4.5-19.5,1.9c-2.6-1.1-5.1-1.6-6.8-4c-1.4-2-2-4.7-1.1-7c0.9-2.4,3.1-4.1,5.6-4.7
	c2.4-0.6,5.1-0.3,7.4,0.6c1.5,0.6,3,1.4,4.6,1.5c4.1,0.3,8.4-2.6,11.4,1.7C76.5,22.6,75.4,26.9,72.8,29.4z"/>
</svg>
